<?xml version="1.0" encoding="UTF-8"?>
<svg version="1.1" xmlns="http://www.w3.org/2000/svg" width="3544" height="1418">
<path d="M0 0 C0.99338379 0.12728485 0.99338379 0.12728485 2.00683594 0.25714111 C50.37823555 6.51421758 97.98871465 19.87153199 142 41 C142.93086426 41.44424316 143.86172852 41.88848633 144.82080078 42.34619141 C172.61589711 55.69204971 198.9478332 71.65077084 223 91 C223.90234375 91.721875 224.8046875 92.44375 225.734375 93.1875 C228.51045153 95.43403592 231.2552969 97.71528177 234 100 C234.95132812 100.76441406 235.90265625 101.52882813 236.8828125 102.31640625 C245.52569262 109.37634628 253.41241981 117.1959505 261.3125 125.0625 C261.87212433 125.61694794 262.43174866 126.17139587 263.0083313 126.74264526 C270.15639454 133.83858734 276.74032087 141.09889757 283 149 C283.86315348 150.02774726 284.73155827 151.05115448 285.609375 152.06640625 C325.45647603 198.53045289 352.43906819 256.82002453 364.3125 316.625 C364.65825073 318.35339111 364.65825073 318.35339111 365.01098633 320.11669922 C368.83119339 340.50142511 370.50741622 360.87871161 370.39111328 381.60449219 C370.37500115 384.99975716 370.39110388 388.39383247 370.41015625 391.7890625 C370.4311614 412.63273498 368.35000009 433.18425624 364.25 453.625 C363.99395996 454.91857422 363.73791992 456.21214844 363.47412109 457.54492188 C361.03742161 469.59350977 357.78930053 481.31312691 354 493 C353.70399902 493.93150879 353.40799805 494.86301758 353.10302734 495.82275391 C337.63582528 544.11284613 311.3338985 587.96770334 278 626 C277.23429687 626.87785156 276.46859375 627.75570312 275.6796875 628.66015625 C269.67863278 635.36551482 263.36165974 641.76551227 257.02429199 648.15093994 C256.02511139 649.15816232 255.02741559 650.16686031 254.03137207 651.17718506 C247.37153413 657.92229008 240.41342012 664.08137782 233 670 C231.89828422 670.93491198 230.80193811 671.8762511 229.71484375 672.828125 C206.7119606 692.88689793 180.08696117 708.79686533 153.375 723.375 C152.68277344 723.76252441 151.99054688 724.15004883 151.27734375 724.54931641 C146.63687117 727.02711401 146.63687117 727.02711401 143.98144531 726.9140625 C141.0349545 725.55481391 140.39787079 723.66621725 138.9609375 720.7890625 C138.38956055 719.66371094 137.81818359 718.53835938 137.22949219 717.37890625 C136.61122576 716.12765474 135.99306489 714.87635107 135.375 713.625 C134.72182874 712.32869488 134.06717437 711.03313612 133.41113281 709.73828125 C132.00536295 706.96034457 130.60649775 704.17907604 129.21191406 701.39550781 C125.82784668 694.65410819 122.36407299 687.95359779 118.90792847 681.2489624 C117.75443771 679.00861904 116.60438139 676.76654491 115.45532227 674.52392578 C112.14269025 668.06333247 108.81357066 661.61546282 105.37890625 655.21875 C104.85264648 654.23519531 104.32638672 653.25164063 103.78417969 652.23828125 C102.83407107 650.47046137 101.87565864 648.70706766 100.90722656 646.94921875 C100.50084961 646.19253906 100.09447266 645.43585937 99.67578125 644.65625 C99.32427002 644.01494141 98.97275879 643.37363281 98.6105957 642.71289062 C98 641 98 641 99 638 C101.29065295 636.55136572 103.54687962 635.2624814 105.9375 634 C107.40898283 633.19531917 108.87898256 632.38792162 110.34765625 631.578125 C111.11480957 631.15595703 111.88196289 630.73378906 112.67236328 630.29882812 C130.23415715 620.49929557 146.67562796 609.02012339 162 596 C163.04749855 595.13719639 164.09571432 594.27526301 165.14453125 593.4140625 C179.39217361 581.60060763 192.87200379 568.62554386 203.79833984 553.64160156 C204.97519495 552.03388646 206.1846021 550.45016168 207.39453125 548.8671875 C212.90397127 541.55583389 217.65161353 533.81130142 222.3125 525.9375 C223.1928894 524.46627686 223.1928894 524.46627686 224.09106445 522.96533203 C227.09013381 517.81171206 229.60125948 512.71052023 231.69995117 507.12329102 C232.352743 505.39502831 232.352743 505.39502831 233.01872253 503.6318512 C233.3425441 502.7633403 233.66636566 501.89482941 234 501 C213.74638691 501.06051339 193.49290667 501.13799832 173.23943806 501.23571491 C163.8354994 501.28068979 154.43159875 501.32010055 145.02758789 501.34643555 C136.83151463 501.36940192 128.63556149 501.40278469 120.43958348 501.44870156 C116.09944223 501.47265217 111.75942009 501.49136888 107.41921425 501.49761391 C103.33405815 501.50365648 99.2492069 501.52362616 95.16416359 501.55427551 C93.66499446 501.56306905 92.16578552 501.56677559 90.66659164 501.56500816 C88.6189047 501.56335632 86.57123103 501.58181566 84.52363586 501.60127258 C83.37784719 501.60588155 82.23205851 501.61049051 81.05154896 501.61523914 C75.54522642 502.3095152 72.08946196 505.6653262 68 509.1875 C37.1283439 534.65970757 -7.58054152 546.94206821 -47 548 C-47.64855957 548.02046387 -48.29711914 548.04092773 -48.96533203 548.06201172 C-94.59246454 549.34504287 -142.53416251 537.25751478 -176.51953125 505.37890625 C-177.33808594 504.59386719 -178.15664062 503.80882812 -179 503 C-179.93199219 502.14277344 -180.86398438 501.28554688 -181.82421875 500.40234375 C-196.36314276 486.75277519 -211.81004326 466.63473146 -217 447 C-217 445.35 -217 443.7 -217 442 C13.67 441.505 13.67 441.505 249 441 C261.25534307 362.56580433 252.63421242 291.47362746 205.08984375 225.96875 C190.8088941 206.53664814 174.72225869 187.33733898 155.828125 172.26953125 C152.95759026 169.96596677 150.17014786 167.58170452 147.375 165.1875 C95.29618422 121.87773932 26.32562657 98.80578346 -41 97 C-41.7930957 96.97808594 -42.58619141 96.95617187 -43.40332031 96.93359375 C-83.08092446 96.01901202 -123.3943449 101.50058953 -160.95727539 114.45996094 C-161.92656982 114.7902832 -162.89586426 115.12060547 -163.89453125 115.4609375 C-164.73862549 115.75790527 -165.58271973 116.05487305 -166.45239258 116.36083984 C-169.37473331 117.09401551 -171.99737734 117.04222345 -175 117 C-175.53045425 115.93576057 -175.53045425 115.93576057 -176.07162476 114.85002136 C-179.45112497 108.07074731 -182.8326908 101.29250912 -186.21642113 94.51534557 C-187.95477711 91.03347717 -189.69240923 87.55125196 -191.42822266 84.06811523 C-201.47940381 63.85573612 -201.47940381 63.85573612 -211.92123413 43.84342957 C-215.21610541 37.67904513 -218.17623452 31.39364786 -221 25 C-212.90548943 21.45111262 -204.79901556 18.52212351 -196.3125 16.0625 C-195.13606934 15.72041504 -193.95963867 15.37833008 -192.74755859 15.02587891 C-130.46760339 -2.85069759 -64.34695785 -8.29421929 0 0 Z " fill="#FFFFFF" transform="translate(315,347)"/>
<path d="M0 0 C218.13620675 0 218.13620675 0 241.25 5.6875 C242.3124292 5.94313721 243.3748584 6.19877441 244.46948242 6.4621582 C284.33611566 16.42807389 321.0953731 38.23011203 342.82275391 73.96582031 C363.57332407 109.82101537 367.16654053 154.09692102 357.15185547 193.86132812 C347.21178567 230.57775821 323.10281532 258.65377736 290.4375 277.5625 C265.38985832 291.60833414 236.45190221 298.59395761 208 301 C207.03342468 301.08376892 206.06684937 301.16753784 205.07098389 301.25384521 C193.55703555 302.13805936 182.07782411 302.12802384 170.53515625 302.09765625 C168.64416534 302.09618197 166.75317402 302.09516426 164.86218262 302.09460449 C157.92894877 302.0894079 150.99572371 302.07544688 144.0625 302.0625 C128.531875 302.041875 113.00125 302.02125 97 302 C97 339.95 97 377.9 97 417 C64.99 417 32.98 417 0 417 C0 279.39 0 141.78 0 0 Z M97 80 C97 127.19 97 174.38 97 223 C117.975625 223.061875 117.975625 223.061875 139.375 223.125 C143.75313965 223.14320801 148.1312793 223.16141602 152.64208984 223.18017578 C156.64546048 223.18687399 156.64546048 223.18687399 160.64883423 223.19088745 C162.40055362 223.19391287 164.15226947 223.20084881 165.90396118 223.21115112 C181.25625815 223.2967488 196.85708233 222.95826908 211.75 218.8125 C212.53383057 218.59746826 213.31766113 218.38243652 214.12524414 218.16088867 C232.1670776 212.94536936 246.77198436 202.60286421 256 186 C258.05451683 181.41762177 259.64369471 176.83254995 261 172 C261.24492188 171.13375 261.48984375 170.2675 261.7421875 169.375 C265.79931501 151.59033148 263.75337263 130.01278022 255 114 C244.06288676 96.93086554 227.88072033 87.01063707 208.15971375 82.43911743 C195.34396186 79.83339245 182.87493568 79.73559481 169.8515625 79.8046875 C167.97941202 79.80763545 166.10725989 79.80967125 164.23510742 79.81079102 C157.36504615 79.82119126 150.49502038 79.84911343 143.625 79.875 C120.545625 79.936875 120.545625 79.936875 97 80 Z " fill="#FFFFFF" transform="translate(790,524)"/>
<path d="M0 0 C0.80476776 0.00182281 1.60953552 0.00364563 2.43869019 0.00552368 C15.41730182 0.05480609 28.06581846 0.68365723 40.8125 3.3125 C41.64942383 3.48410645 42.48634766 3.65571289 43.34863281 3.83251953 C75.73394199 10.72996166 104.85296045 25.36355614 128.8125 48.3125 C129.55628906 49.00472656 130.30007813 49.69695313 131.06640625 50.41015625 C159.55900324 77.71349702 174.99274598 118.11114421 176.015625 157.16796875 C176.5913918 203.42244983 163.14215807 245.55915057 130.8125 279.3125 C130.12027344 280.05628906 129.42804688 280.80007813 128.71484375 281.56640625 C97.40804103 314.23684466 49.77804394 329.19403697 5.5390625 330.50390625 C-43.66057325 331.35859311 -90.41717964 316.52282913 -127.1875 283.3125 C-128.03570313 282.54808594 -128.88390625 281.78367187 -129.7578125 280.99609375 C-158.4180655 253.76424564 -174.59430691 213.63237195 -176.3137207 174.43505859 C-177.45263846 129.81117634 -165.63758736 86.73338999 -134.43579102 53.7199707 C-133.02375607 52.24690925 -131.6058514 50.77948059 -130.1875 49.3125 C-129.57390625 48.64734375 -128.9603125 47.9821875 -128.328125 47.296875 C-107.0055446 24.70760665 -75.80884884 11.51750536 -46.125 4.5625 C-45.28815674 4.36374268 -44.45131348 4.16498535 -43.58911133 3.96020508 C-29.173723 0.75510635 -14.71742626 -0.06978708 0 0 Z M-60.0625 101.7421875 C-77.47318794 122.80143872 -82.58906875 148.55616331 -81.1875 175.3125 C-78.90453658 199.02678258 -69.14633578 220.50262083 -50.96875 236.18359375 C-32.64574696 250.20892613 -10.21617382 255.30634613 12.5625 252.625 C30.51520132 249.7800364 44.99298013 242.10929023 57.8125 229.3125 C58.74835938 228.39404297 58.74835938 228.39404297 59.703125 227.45703125 C76.68243942 209.52167435 81.72101032 183.41396916 81.09375 159.5234375 C79.94880028 133.71436266 70.4770638 112.0664319 51.66796875 94.28515625 C19.8114079 67.42331431 -31.84170757 71.96510137 -60.0625 101.7421875 Z " fill="#FFFFFF" transform="translate(1364.1875,615.6875)"/>
<path d="M0 0 C2.99127457 2.67716734 5.88386421 5.44800076 8.7734375 8.234375 C9.55203125 8.94980469 10.330625 9.66523437 11.1328125 10.40234375 C39.51310641 37.22272789 53.42237167 78.85502365 54.88354492 117.11767578 C54.94225432 120.07395427 54.9590024 123.02754126 54.9609375 125.984375 C54.97318359 126.95375 54.98542969 127.923125 54.99804688 128.921875 C55.0145548 137.32991287 53.91239554 144.69218967 52.7734375 153.234375 C-26.7565625 153.564375 -106.2865625 153.894375 -188.2265625 154.234375 C-180.59431144 177.13112819 -169.41802885 194.28796469 -147.4140625 205.484375 C-119.74899347 218.91554768 -86.44607576 219.68641184 -57.41992188 210.03222656 C-44.52499368 205.34159596 -32.27499556 197.86344932 -22.1640625 188.609375 C-19.2265625 186.234375 -19.2265625 186.234375 -17.24902344 186.36230469 C-14.74321586 187.44279052 -13.64858166 188.70018609 -11.9296875 190.8125 C-9.56401534 193.64173305 -7.17799293 196.40938025 -4.6484375 199.09375 C-4.05071533 199.72821045 -3.45299316 200.3626709 -2.8371582 201.01635742 C-2.22316162 201.66580322 -1.60916504 202.31524902 -0.9765625 202.984375 C4.4138677 208.70983749 9.76639572 214.46435242 15.0625 220.27734375 C17.03932733 222.44303525 19.03806177 224.58660645 21.046875 226.72265625 C21.59512939 227.30829346 22.14338379 227.89393066 22.70825195 228.49731445 C23.76555287 229.62566244 24.82639885 230.75070278 25.89135742 231.87182617 C28.34518785 234.4977101 30.41205693 236.88328436 31.7734375 240.234375 C4.50045117 272.72316287 -36.26444163 287.65116945 -77.6015625 291.484375 C-130.38456268 295.76059007 -186.21298901 285.51739627 -227.54296875 250.57421875 C-228.87134766 249.41599609 -228.87134766 249.41599609 -230.2265625 248.234375 C-230.96302002 247.59846436 -230.96302002 247.59846436 -231.71435547 246.94970703 C-239.00972955 240.61686882 -245.38862091 233.97304176 -251.2265625 226.234375 C-251.82984375 225.43515625 -252.433125 224.6359375 -253.0546875 223.8125 C-279.19757729 187.77770597 -288.15987157 142.79372379 -281.63500977 99.02392578 C-274.64389394 56.78221428 -252.66539012 18.75406394 -217.66796875 -6.35546875 C-155.24240542 -49.85107728 -58.9301097 -51.39714766 0 0 Z M-166.2265625 52.234375 C-166.90976563 52.83765625 -167.59296875 53.4409375 -168.296875 54.0625 C-180.32910596 65.31698219 -186.39849306 80.51576585 -190.2265625 96.234375 C-190.2265625 96.894375 -190.2265625 97.554375 -190.2265625 98.234375 C-138.7465625 98.234375 -87.2665625 98.234375 -34.2265625 98.234375 C-37.57074826 82.6281748 -41.34633458 71.58986002 -51.2265625 59.234375 C-51.9690625 58.203125 -52.7115625 57.171875 -53.4765625 56.109375 C-66.9433598 42.03045055 -86.03268478 33.67723848 -105.46484375 32.99609375 C-128.21296334 32.57566646 -148.84082962 36.45455319 -166.2265625 52.234375 Z " fill="#FFFFFF" transform="translate(2423.2265625,653.765625)"/>
<path d="M0 0 C20.8304521 18.20921716 33.03076899 40.20562025 39.60546875 66.92578125 C39.90940552 68.14515381 39.90940552 68.14515381 40.21948242 69.38916016 C43.70187552 84.25143859 44.20550422 98.91371825 44.14501953 114.09375 C44.14445404 116.10593663 44.14477467 118.11812367 44.14590454 120.13031006 C44.14647366 125.54245013 44.13479148 130.95449986 44.12075663 136.36661911 C44.10817504 142.04136435 44.10707295 147.71611211 44.10470581 153.39086914 C44.09851273 164.11431096 44.08213157 174.83771155 44.06200683 185.56113529 C44.03537878 200.06761004 44.02465762 214.57409623 44.0130024 229.08058929 C43.99424922 251.90401744 43.95438911 274.72735862 43.91796875 297.55078125 C13.22796875 297.55078125 -17.46203125 297.55078125 -49.08203125 297.55078125 C-49.1078125 284.33273437 -49.13359375 271.1146875 -49.16015625 257.49609375 C-49.18533485 249.10154786 -49.21151399 240.70702464 -49.2421875 232.3125 C-49.29064459 219.0004901 -49.33512077 205.6885556 -49.35302734 192.37646484 C-49.36609052 182.67906409 -49.39317341 172.98181764 -49.43664432 163.28450382 C-49.45915468 158.15641192 -49.47494824 153.0285096 -49.4739151 147.90036392 C-49.47316228 143.05919675 -49.49135948 138.21844699 -49.52319908 133.377388 C-49.53161652 131.61438023 -49.53350457 129.85132518 -49.52783394 128.08830643 C-49.47015252 107.37213692 -52.99058675 86.61997234 -67.08203125 70.55078125 C-80.89641198 57.10356014 -97.56139603 54.06091496 -116.13110352 54.19946289 C-136.20197306 54.64980607 -153.18459169 60.65120936 -168.1015625 74.4140625 C-188.08839042 95.48369826 -189.18056423 125.70881275 -189.28735352 153.03295898 C-189.29696279 154.62136064 -189.30697449 156.20975991 -189.31735229 157.79815674 C-189.34407775 162.05951374 -189.36525967 166.32088146 -189.38535428 170.5822742 C-189.40741669 175.0545482 -189.43470503 179.52679044 -189.46141052 183.9990387 C-189.51106647 192.44522987 -189.55610431 200.89143892 -189.59943289 209.33766466 C-189.65833637 220.76705881 -189.72447537 232.19641103 -189.79018307 243.62576771 C-189.89333316 261.60074385 -189.98690388 279.57575671 -190.08203125 297.55078125 C-220.77203125 297.55078125 -251.46203125 297.55078125 -283.08203125 297.55078125 C-283.08203125 191.62078125 -283.08203125 85.69078125 -283.08203125 -23.44921875 C-253.71203125 -23.44921875 -224.34203125 -23.44921875 -194.08203125 -23.44921875 C-193.75203125 -11.56921875 -193.42203125 0.31078125 -193.08203125 12.55078125 C-190.11203125 9.58078125 -187.14203125 6.61078125 -184.08203125 3.55078125 C-163.55624104 -13.33024247 -139.09288136 -22.29421579 -113.08203125 -26.44921875 C-111.90125 -26.64128906 -110.72046875 -26.83335937 -109.50390625 -27.03125 C-71.33518494 -31.48835947 -30.34870858 -24.73285123 0 0 Z " fill="#FFFFFF" transform="translate(3405.08203125,643.44921875)"/>
<path d="M0 0 C0.96322174 0.00182281 1.92644348 0.00364563 2.91885376 0.00552368 C18.29727154 0.05437133 33.31312341 0.69964968 48.5 3.3125 C49.5405957 3.48942383 50.58119141 3.66634766 51.65332031 3.84863281 C76.46806571 8.19327678 102.25014667 14.17415137 123.5 28.3125 C119.84356654 37.33836904 115.86734211 46.19389163 111.79663086 55.03842163 C110.02174967 58.89481367 108.25346476 62.75422992 106.484375 66.61328125 C106.13874512 67.36676346 105.79311523 68.12024567 105.43701172 68.89656067 C101.4099606 77.68027703 97.44476564 86.49156572 93.5 95.3125 C89.9663815 93.97472474 86.61477172 92.38784395 83.23730469 90.69824219 C65.29807796 81.85255392 46.27448718 76.17645012 26.5 73.3125 C25.82952637 73.2108252 25.15905273 73.10915039 24.46826172 73.00439453 C16.8539152 71.99478725 9.16777313 72.06881101 1.5 72.0625 C0.76422729 72.06182526 0.02845459 72.06115051 -0.72961426 72.06045532 C-18.88573198 72.08692125 -39.03883172 72.83390392 -52.75390625 86.34765625 C-57.07728284 91.21266391 -58.08480765 95.41415798 -57.8359375 101.7890625 C-57.16130087 106.85668185 -55.48946716 110.49882628 -51.6875 113.96484375 C-42.3924726 120.67981759 -31.71030663 123.42750917 -20.6640625 125.6875 C-19.61871841 125.90322159 -18.57337433 126.11894318 -17.49635315 126.34120178 C-4.43518059 128.99287495 8.71450587 131.1425058 21.86645508 133.28930664 C57.5698318 139.14080345 97.08899398 147.06644818 120.50390625 177.3125 C128.87658994 189.89610288 133.97241229 205.19596518 134.5 220.3125 C134.53996094 221.37855469 134.57992188 222.44460938 134.62109375 223.54296875 C135.12147096 250.06296079 126.04698853 272.18878703 107.875 291.3125 C73.81319691 324.24404718 21.9192852 331.21156538 -23.47265625 330.5 C-67.28195028 329.35931863 -118.94086532 321.39023139 -155.5 295.3125 C-154.88659741 291.4657012 -153.73458074 288.39090195 -152.015625 284.90234375 C-151.4985498 283.84305664 -150.98147461 282.78376953 -150.44873047 281.69238281 C-149.88814941 280.55639648 -149.32756836 279.42041016 -148.75 278.25 C-147.56862055 275.82762564 -146.38862347 273.4046353 -145.2109375 270.98046875 C-144.9072525 270.35637115 -144.6035675 269.73227356 -144.29067993 269.08926392 C-140.90556292 262.11750965 -137.63318714 255.09425726 -134.375 248.0625 C-133.83133789 246.89195068 -133.28767578 245.72140137 -132.72753906 244.51538086 C-130.24129533 239.14485911 -127.78746791 233.7708717 -125.5 228.3125 C-121.14713526 228.88650414 -118.32058524 230.49008733 -114.625 232.8125 C-78.03058164 254.63444763 -22.9726941 265.71908583 18.90625 255.27734375 C28.46328422 252.6453963 36.99601727 248.99185739 42.5 240.3125 C44.73239313 234.78466939 44.90453673 230.03546308 43.5 224.3125 C39.74301423 216.32890524 32.13138662 212.69218023 24.1875 209.75 C9.0000969 204.81745576 -7.29773756 203.12593574 -23.03125 200.65234375 C-108.28075822 187.21510701 -108.28075822 187.21510701 -132.4375 156.375 C-146.74804197 135.98378818 -150.73139458 110.56163586 -146.78125 86.09375 C-141.78557067 60.49952038 -126.94029642 40.36873554 -105.50390625 25.84179688 C-88.99746944 14.97842922 -70.73908995 8.6640169 -51.5 4.5625 C-50.57646729 4.36382324 -49.65293457 4.16514648 -48.70141602 3.96044922 C-32.54062583 0.70232671 -16.44646345 -0.06488493 0 0 Z " fill="#FFFFFF" transform="translate(1725.5,615.6875)"/>
<path d="M0 0 C31.02 0 62.04 0 94 0 C94 25.74 94 51.48 94 78 C120.07 78 146.14 78 173 78 C173 101.76 173 125.52 173 150 C146.93 150 120.86 150 94 150 C94.06154871 174.21007044 94.06154871 174.21007044 94.16015625 198.41992188 C94.20861846 208.29972088 94.25309257 218.1794182 94.27099609 228.05932617 C94.28405691 235.25642643 94.31113362 242.45331869 94.35461307 249.65030175 C94.37712902 253.45641951 94.39291667 257.26228166 94.39188385 261.06847191 C94.39113133 264.6612845 94.40931545 268.25353423 94.44116783 271.84620094 C94.45356224 273.77238688 94.44664916 275.69866787 94.43885803 277.62487793 C94.57788104 289.40620992 97.06382495 300.92746732 105 310 C113.23119139 317.91795366 123.84592138 320.35366912 135.02734375 320.21875 C145.84977292 319.42235574 157.44367553 317.0489856 166.4375 310.6875 C167.283125 310.130625 168.12875 309.57375 169 309 C172 310 172 310 172.99560547 311.94262695 C173.28322754 312.78269287 173.57084961 313.62275879 173.8671875 314.48828125 C174.19589844 315.42349609 174.52460938 316.35871094 174.86328125 317.32226562 C175.19714844 318.30904297 175.53101562 319.29582031 175.875 320.3125 C178.26516995 327.23265609 180.80872178 334.01879615 183.66162109 340.76196289 C185.95447655 346.30923431 188.05239233 351.92799618 190.13183594 357.55786133 C190.63383079 358.91196111 191.14012836 360.26447241 191.65039062 361.61547852 C192.39834196 363.59589271 193.13414128 365.58043441 193.8671875 367.56640625 C194.30144043 368.73115479 194.73569336 369.89590332 195.18310547 371.09594727 C196 374 196 374 195 377 C192.86882085 378.42179662 190.82380803 379.63243877 188.5625 380.8125 C187.8936377 381.1621582 187.22477539 381.51181641 186.53564453 381.87207031 C168.67572181 390.89056945 147.94628148 395.45254836 128 396 C127.35063477 396.02046387 126.70126953 396.04092773 126.03222656 396.06201172 C93.00986904 396.9831056 57.35432848 391.16003406 32.125 368.1875 C11.23462251 348.35343054 0.73085978 320.43580091 -0.08998299 291.86836052 C-0.12269311 288.13458968 -0.12392174 284.40155375 -0.11352539 280.66772461 C-0.11324284 279.23784385 -0.11340257 277.80796295 -0.1139679 276.37808228 C-0.11425324 272.52128731 -0.10839917 268.66452384 -0.10139394 264.80773616 C-0.09511647 260.76786763 -0.09455314 256.72799827 -0.09336853 252.68812561 C-0.09026812 245.04919427 -0.08207221 237.41027736 -0.07201904 229.77135235 C-0.06081773 221.06998108 -0.05533735 212.36860909 -0.05032361 203.66723239 C-0.03988845 185.77814511 -0.0215591 167.88907757 0 150 C-16.17 150 -32.34 150 -49 150 C-49 126.24 -49 102.48 -49 78 C-32.83 78 -16.66 78 0 78 C0 52.26 0 26.52 0 0 Z " fill="#FFFFFF" transform="translate(1927,550)"/>
<path d="M0 0 C0 28.38 0 56.76 0 86 C-11.55 86 -23.1 86 -35 86 C-58.15123002 90.630246 -75.52665779 97.15322095 -90.1875 116.27734375 C-104.1679783 137.27819154 -105.10572651 162.50624517 -105.20532227 186.83959961 C-105.21493332 188.35903673 -105.2249451 189.87847135 -105.23532104 191.39790344 C-105.26202736 195.47124926 -105.28321928 199.54460627 -105.30332303 203.6179893 C-105.32539767 207.89407359 -105.35267986 212.17012479 -105.37937927 216.44618225 C-105.42901908 224.52050503 -105.47406271 232.59484646 -105.51740164 240.66920525 C-105.56702163 249.8713346 -105.62184681 259.07343073 -105.67708123 268.27552783 C-105.7904597 287.18365428 -105.89739242 306.09181219 -106 325 C-117.97803559 325.0231219 -129.95606591 325.0409143 -141.93411922 325.05181217 C-147.49539411 325.05704134 -153.05665379 325.06413958 -158.61791992 325.07543945 C-163.98007419 325.08626715 -169.34221378 325.09227658 -174.70437813 325.09487724 C-176.75500278 325.09673171 -178.8056266 325.10035272 -180.85624504 325.10573006 C-183.71790203 325.11293893 -186.57949757 325.11399101 -189.44116211 325.11352539 C-190.29783478 325.11712067 -191.15450745 325.12071594 -192.03713989 325.12442017 C-197.88594784 325.11405216 -197.88594784 325.11405216 -199 324 C-199.09728977 322.29541262 -199.12371503 320.58675499 -199.12304783 318.87939358 C-199.1260344 317.20437713 -199.1260344 317.20437713 -199.12908131 315.49552196 C-199.12616847 314.25333135 -199.12325563 313.01114074 -199.12025452 311.73130798 C-199.12110894 310.4237168 -199.12196337 309.11612562 -199.12284368 307.76891047 C-199.12509111 304.12265526 -199.12106399 300.47642916 -199.11606562 296.83017766 C-199.11176484 292.90445985 -199.11320728 288.9787438 -199.1139679 285.05302429 C-199.11449337 278.24587042 -199.11134414 271.4387261 -199.10573006 264.63157463 C-199.0976182 254.78946132 -199.09500016 244.94735265 -199.09374207 235.10523636 C-199.09155105 219.13875847 -199.08488963 203.17228567 -199.07543945 187.20581055 C-199.06626661 171.69181341 -199.05918516 156.17781766 -199.05493164 140.66381836 C-199.05466892 139.7082425 -199.05440619 138.75266664 -199.05413551 137.76813393 C-199.05283051 132.97450177 -199.0515668 128.1808696 -199.05032361 123.38723743 C-199.03994945 83.59148709 -199.02151032 43.79574618 -199 4 C-169.63 4 -140.26 4 -110 4 C-109.505 23.8 -109.505 23.8 -109 44 C-105.04 39.71 -101.08 35.42 -97 31 C-68.40482195 7.35398738 -36.48362208 0 0 0 Z " fill="#FFFFFF" transform="translate(2737,616)"/>
<path d="M0 0 C30.69 0 61.38 0 93 0 C93 105.93 93 211.86 93 321 C62.31 321 31.62 321 0 321 C0 215.07 0 109.14 0 0 Z " fill="#FFFFFF" transform="translate(2944,620)"/>
<path d="M0 0 C0.77867432 -0.00067474 1.55734863 -0.00134949 2.35961914 -0.00204468 C34.505657 0.04212104 64.99611378 7.77403635 93.25 23.25 C94.2088208 23.77182861 94.2088208 23.77182861 95.18701172 24.30419922 C104.23072764 29.29296955 112.12226976 35.04286197 119.79492188 41.94628906 C121.13399532 43.14606292 122.495722 44.32042579 123.859375 45.4921875 C140.505956 59.96517035 157.86257234 79.69243164 164.25 101.25 C164.25 102.57 164.25 103.89 164.25 105.25 C55.02 105.25 -54.21 105.25 -166.75 105.25 C-164.72587438 98.50291459 -162.90689886 92.9183046 -159.625 86.875 C-159.23248047 86.14531006 -158.83996094 85.41562012 -158.43554688 84.66381836 C-152.60592379 74.08426116 -145.04541122 64.99714153 -136.75 56.25 C-135.90695313 55.35410156 -135.06390625 54.45820312 -134.1953125 53.53515625 C-118.92700606 37.75790626 -100.52157719 26.52663817 -80.75 17.25 C-79.66976562 16.72792969 -78.58953125 16.20585938 -77.4765625 15.66796875 C-61.24795286 8.22166966 -43.41156227 3.63918116 -25.75 1.25 C-24.45449219 1.06695313 -23.15898437 0.88390625 -21.82421875 0.6953125 C-14.58147172 -0.07665139 -7.27603573 0.0056646 0 0 Z " fill="#FFFFFF" transform="translate(262.75,568.75)"/>
<path d="M0 0 C10.74795908 8.74638297 18.10089827 21.1979897 20 35 C21.54076396 52.56538346 19.6524691 68.39485219 9 83 C-1.17620835 95.07534521 -13.23984026 101.5668635 -28.625 104.75 C-47.74909718 106.16659979 -63.23773962 101.454693 -78.1171875 89.265625 C-89.85604567 78.57732612 -95.10796778 63.78280276 -95.99194336 48.25878906 C-96.46111035 32.74159277 -91.82853171 18.53752962 -81.75 6.5625 C-60.69454794 -15.13315162 -24.29315691 -17.61690803 0 0 Z " fill="#FFFFFF" transform="translate(2861,841)"/>
<path d="M0 0 C10.71896622 8.92709084 16.19873882 20.35888978 17.59375 34.1171875 C18.09724326 46.87759491 14.96326412 59.73046903 7.28125 70.03515625 C6.77980469 70.72867188 6.27835938 71.4221875 5.76171875 72.13671875 C-3.7454256 84.11895907 -17.68882556 89.78588168 -32.47265625 91.71875 C-50.16344026 93.44312245 -67.89020629 89.95170947 -81.92578125 78.55859375 C-91.58518317 69.5995315 -98.37975332 57.27190778 -99.01953125 43.921875 C-99.03862065 42.52226014 -99.04219649 41.12235848 -99.03125 39.72265625 C-99.02706055 38.98281494 -99.02287109 38.24297363 -99.01855469 37.48071289 C-98.74447084 24.08996742 -93.66114173 12.89565801 -84.71875 3.03515625 C-62.40662829 -17.83125563 -24.08113974 -17.40346737 0 0 Z " fill="#FFFFFF" transform="translate(3031.71875,484.96484375)"/>
</svg>
